<svg id="Capa_1" enable-background="new 0 0 512.106 512.106" height="512" viewBox="0 0 512.106 512.106" width="512" xmlns="http://www.w3.org/2000/svg"><g><g><path d="m457.547 390.9-.442-.71c-2.921-4.686-9.09-6.117-13.776-3.194-4.686 2.922-6.117 9.09-3.194 13.776.088.197 5.696 8.232 3.152 12.816-1.427 2.572-5.804 4.107-11.708 4.107h-37.757l7.694-7.672c3.911-3.899 3.92-10.231.02-14.142-3.9-3.91-10.231-3.92-14.142-.02l-24.752 24.682c-3.916 3.905-3.918 10.255 0 14.162l24.751 24.684c3.92 3.908 10.251 3.882 14.143-.02 3.899-3.911 3.891-10.243-.02-14.143l-7.552-7.531c2.903 0 39.435 0 37.616 0 28.297.001 40.913-22.828 25.967-46.795z"/><path d="m363.542 318.216c.547-.658 5.453-10.524 12.556-10.524 3.809 0 7.876 3.021 11.161 8.287l18.793 30.136-10.37-2.455c-5.373-1.275-10.762 2.053-12.034 7.428-1.272 5.374 2.053 10.762 7.428 12.034l34.014 8.051c5.382 1.275 10.782-2.068 12.04-7.454l7.957-34.038c1.257-5.378-2.083-10.757-7.461-12.014-5.376-1.256-10.756 2.083-12.014 7.461l-2.475 10.587-18.907-30.319c-14.701-23.574-41.528-23.628-56.263.001l-1.395 2.237c-2.922 4.687-1.492 10.855 3.194 13.777 4.685 2.921 10.855 1.492 13.776-3.195z"/><path d="m343.593 344.648c-1.26-5.393-6.669-8.729-12.04-7.455l-34.015 8.051c-5.374 1.272-8.7 6.66-7.428 12.034s6.659 8.704 12.034 7.428l10.366-2.454-17.864 28.647c-14.976 24.014-2.275 46.795 25.967 46.795h9.018c5.523 0 10-4.477 10-10s-4.477-10-10-10h-9.018c-5.903 0-10.279-1.535-11.706-4.106s-.413-7.097 2.71-12.105l17.982-28.835 2.476 10.593c1.078 4.612 5.188 7.726 9.729 7.726 6.439 0 11.214-5.999 9.746-12.279z"/><path d="m462.395 273.268c-1.776-27.152-1.189-18.687-1.334-20.376-6.259-72.691-43.053-134.578-106.495-169.002-12.661-6.868-26.544-12.491-40.936-13.13 1.133-12.574-.26-22.468-.339-23.016-.637-4.38-4.076-7.82-8.456-8.458-1.659-.241-39.7-5.494-62.83 14.856v-4.142c0-27.57-22.43-50-50-50-5.523 0-10 4.477-10 10s4.477 10 10 10c16.542 0 30 13.458 30 30v50.84c-17.711-5.032-41.534-31.77-73.03-30.065-16.322.904-30.946 7.918-40.526 13.116-78.816 42.764-113.867 126.546-106.476 213.446.566 6.659 7.395 10.908 13.623 8.46 45.571-17.918 95.501 15.866 95.501 65.203 0 12.758-3.466 25.247-10.023 36.114-3.699 6.131.072 14.076 7.177 15.069 33.753 4.723 52.948 41.628 37.928 71.902-2.823 5.688.311 12.534 6.448 14.125 19.896 5.158 38.942 4.981 56.664-.049 6.165-1.746 12.815-2.631 19.765-2.631 2.865.137 12.783-.736 24.648 2.629 24.141 6.855 50.128 4.075 73.128-5.467 88.022 34.62 184.265-30.514 184.265-125.692 0-41.649-18.962-78.949-48.702-103.732zm-168.352-214.738c.097 4.109-.042 9.445-.887 15.093-20.271 6.442-39.076 22.979-50.807 26.821.848-9.718 3.593-22.092 11.546-30.051 10.856-10.855 29.556-12.129 40.148-11.863zm-34.877 430.389c-7.93-2.249-16.414-3.389-25.218-3.389-2.917.15-15.129-.853-30.111 3.39-11.188 3.175-22.966 3.894-35.134 2.157 10.233-35.98-9.857-73.435-44.492-85.513 27.834-66.962-31.563-138.568-103.063-122.346-2.875-79.63 32.75-146.973 96.839-181.748 12.532-6.799 22.73-10.207 32.085-10.725 18.267-1.008 35.224 13.588 54.489 24.37 16.622 9.31 37.272 9.311 53.892.001 15.646-8.758 29.839-20.082 44.391-23.43 3.913-.425 15.062-4.931 42.186 9.784 56.065 30.421 90.19 84.765 96.097 153.034l.287 4.384c-19.37-10.753-41.639-16.888-65.317-16.888-74.44 0-135 60.56-135 135 0 47.04 24.189 88.53 60.777 112.706-14.831 3.316-29.145 3.065-42.708-.787zm116.931 3.081c-63.411 0-115-51.589-115-115s51.589-115 115-115 115 51.589 115 115-51.589 115-115 115z"/></g></g></svg>