<?xml version="1.0"?>
<svg xmlns="http://www.w3.org/2000/svg" xmlns:xlink="http://www.w3.org/1999/xlink" xmlns:svgjs="http://svgjs.com/svgjs" version="1.1" width="512" height="512" x="0" y="0" viewBox="0 0 62 62" style="enable-background:new 0 0 512 512" xml:space="preserve" class=""><g><g xmlns="http://www.w3.org/2000/svg"><path d="m44 32h-26c-1.103 0-2 .897-2 2v16c0 1.103.897 2 2 2h26c1.103 0 2-.897 2-2v-16c0-1.103-.897-2-2-2zm-20.269 11.54 1.809-1.809 1.096.547.463-.259c.535-.3 1.115-.539 1.725-.712l.509-.144.388-1.163h2.559l.389 1.164.509.144c.609.173 1.189.412 1.725.712l.463.259 1.096-.547 1.809 1.809-.547 1.096.259.463c.3.535.539 1.116.712 1.725l.144.51 1.161.386v2.279h-3.089c.055-.329.089-.661.089-1 0-3.309-2.691-6-6-6s-6 2.691-6 6c0 .339.035.671.09 1h-3.09v-2.279l1.164-.388.144-.51c.173-.608.412-1.189.712-1.725l.259-.463zm3.269 5.46c0-2.206 1.794-4 4-4s4 1.794 4 4c0 .342-.058.674-.142 1h-7.717c-.084-.326-.141-.658-.141-1zm15 1v-3.721l-1.544-.515c-.136-.4-.297-.79-.48-1.166l.727-1.453-3.848-3.848-1.453.727c-.376-.184-.765-.344-1.166-.48l-.515-1.544h-5.441l-.515 1.544c-.401.137-.79.297-1.166.48l-1.453-.727-3.848 3.848.727 1.453c-.184.376-.345.766-.48 1.166l-1.545.515v3.721h-2v-16h26l.002 16z" fill="#fffbfb" data-original="#000000" class=""/><path d="m56 36h2v2h-2z" fill="#fffbfb" data-original="#000000" class=""/><path d="m56 40h2v2h-2z" fill="#fffbfb" data-original="#000000" class=""/><path d="m4 40h2v2h-2z" fill="#fffbfb" data-original="#000000" class=""/><path d="m4 36h2v2h-2z" fill="#fffbfb" data-original="#000000" class=""/><path d="m62 19v-8c0-6.065-4.935-11-11-11-4.059 0-7.602 2.215-9.508 5.495-1.165-3.2-4.228-5.495-7.825-5.495h-5.334c-2.537 0-4.81 1.143-6.339 2.938-.034-1.625-1.361-2.938-2.994-2.938h-11.117c-4.347 0-7.883 3.536-7.883 7.883 0 .85.137 1.688.404 2.492l.41 1.232c-.504.669-.814 1.492-.814 2.393 0 2.206 1.794 4 4 4h.35c.487 1.371 1.455 2.514 2.706 3.222-1.843 1.262-3.056 3.381-3.056 5.778v2 1 2h-4v14h4v6h8v2h-1c-1.654 0-3 1.346-3 3 0 2.757 2.243 5 5 5h36c2.757 0 5-2.243 5-5 0-1.654-1.346-3-3-3h-1v-2h8v-6h4v-14h-4v-2-1-2c0-.55-.07-1.083-.191-1.597 2.508-1.102 4.191-3.601 4.191-6.403zm-12 1c-2.206 0-4-1.794-4-4v-6.06c1.823-.219 3.51-1.036 4.828-2.354l.172-.172.172.172c1.318 1.318 3.005 2.136 4.828 2.354v6.06c0 2.206-1.794 4-4 4zm1 2c2.757 0 5 2.243 5 5v1h-10v-1c0-2.757 2.243-5 5-5zm-7 5v1h-6v-1c0-2.397-1.213-4.516-3.056-5.778 1.25-.708 2.219-1.851 2.706-3.222h.35c.732 0 1.409-.212 2-.556v1.556c0 2.802 1.683 5.301 4.191 6.403-.121.514-.191 1.047-.191 1.597zm-29.056-5.778c1.25-.708 2.219-1.851 2.706-3.222h.35c1.201 0 2.266-.542 3-1.382.734.84 1.799 1.382 3 1.382h.35c.487 1.371 1.455 2.514 2.706 3.222-1.843 1.262-3.056 3.381-3.056 5.778v1h-6v-1c0-2.397-1.213-4.516-3.056-5.778zm4.839-12.57c-.084.548-.197 1.091-.331 1.631-.451-.177-.939-.283-1.452-.283v-.35c.653-.232 1.256-.569 1.783-.998zm4.217 7.348c-1.103 0-2-.897-2-2s.897-2 2-2zm-6-4c1.103 0 2 .897 2 2s-.897 2-2 2zm14 8h-2c-2.206 0-4-1.794-4-4v-5c0-.552.448-1 1-1h4c1.222 0 2.275-.733 2.742-1.784 1.33.34 2.258 1.533 2.258 2.907v4.877c0 2.206-1.794 4-4 4zm-6 7c0-2.757 2.243-5 5-5s5 2.243 5 5v1h-10zm12-15c1.103 0 2 .897 2 2s-.897 2-2 2zm-9.667-10h5.334c3.492 0 6.333 2.841 6.333 6.333 0 .693-.126 1.38-.348 2.034-.505-.231-1.061-.367-1.652-.367h-.143c-.415-1.8-1.79-3.264-3.645-3.728l-.322-.081c-.355-1.262-1.516-2.191-2.89-2.191h-1v2h1c.552 0 1 .448 1 1s-.448 1-1 1h-4c-1.302 0-2.402.839-2.816 2h-.184c-.591 0-1.147.136-1.652.367-.222-.654-.348-1.341-.348-2.034 0-3.492 2.841-6.333 6.333-6.333zm-26.333 12c0-1.103.897-2 2-2v4c-1.103 0-2-.897-2-2zm2.143-4h-.143c-.536 0-1.045.11-1.512.301l-.186-.558c-.2-.6-.302-1.226-.302-1.86 0-3.244 2.639-5.883 5.883-5.883h11.117c.552 0 1 .448 1 1v1c0 2.206-1.794 4-4 4h-5c-.552 0-1-.448-1-1s.448-1 1-1h1v-2h-1c-1.371 0-2.518.93-2.874 2.188l-.338.084c-1.855.464-3.23 1.928-3.645 3.728zm5.857 10c-2.206 0-4-1.794-4-4v-4.877c0-1.375.93-2.569 2.263-2.908.467 1.049 1.516 1.785 2.737 1.785h5v6c0 2.206-1.794 4-4 4zm-4 7c0-2.757 2.243-5 5-5s5 2.243 5 5v1h-10zm-4 7h6v10h-6zm4 16v-4h4v-14h-4v-2h7.026c-.635.838-1.026 1.87-1.026 3v17zm46 7c0 1.654-1.346 3-3 3h-36c-1.654 0-3-1.346-3-3 0-.552.448-1 1-1h40c.552 0 1 .448 1 1zm-38-3v-21c0-1.654 1.346-3 3-3h1 26 1c1.654 0 3 1.346 3 3v21zm46-10h-6v-10h6zm-4-12h-4v14h4v4h-6v-17c0-1.13-.391-2.162-1.026-3h7.026zm1.081-8.453c-.529-.927-1.26-1.724-2.137-2.325 1.822-1.031 3.056-2.984 3.056-5.222v-8h-1c-1.667 0-3.235-.649-4.414-1.828l-1.586-1.586-1.586 1.586c-1.179 1.179-2.747 1.828-4.414 1.828h-1v8c0 2.239 1.234 4.191 3.056 5.222-.877.601-1.608 1.398-2.137 2.325-1.752-.803-2.919-2.572-2.919-4.547v-8c0-4.963 4.037-9 9-9s9 4.037 9 9v8c0 1.975-1.167 3.744-2.919 4.547z" fill="#fffbfb" data-original="#000000" class=""/><path d="m14 15h-2c0 .552-.448 1-1 1s-1-.448-1-1h-2c0 1.654 1.346 3 3 3s3-1.346 3-3z" fill="#fffbfb" data-original="#000000" class=""/><path d="m31 16c-.552 0-1-.448-1-1h-2c0 1.654 1.346 3 3 3s3-1.346 3-3h-2c0 .552-.448 1-1 1z" fill="#fffbfb" data-original="#000000" class=""/><path d="m54 15h-2c0 .552-.448 1-1 1s-1-.448-1-1h-2c0 1.654 1.346 3 3 3s3-1.346 3-3z" fill="#fffbfb" data-original="#000000" class=""/></g></g></svg>
