<?xml version="1.0"?>
<svg xmlns="http://www.w3.org/2000/svg" xmlns:xlink="http://www.w3.org/1999/xlink" xmlns:svgjs="http://svgjs.com/svgjs" version="1.1" width="512" height="512" x="0" y="0" viewBox="0 0 512 512" style="enable-background:new 0 0 512 512" xml:space="preserve"><g><path xmlns="http://www.w3.org/2000/svg" d="m422.052 56.069h-75.026v-20.034c0-4.418-3.582-8-8-8h-41.557c-6.686-16.783-22.933-28.035-41.469-28.035s-34.783 11.252-41.469 28.035h-41.558c-4.418 0-8 3.582-8 8v20.035h-75.025c-16.303 0-29.565 13.263-29.565 29.565v396.801c0 16.302 13.263 29.565 29.565 29.565h332.104c16.303 0 29.565-13.263 29.565-29.565v-396.802c0-16.302-13.263-29.565-29.565-29.565zm-241.078-12.034h39.389c3.695 0 6.91-2.531 7.777-6.124 3.111-12.901 14.568-21.911 27.86-21.911s24.749 9.01 27.86 21.911c.867 3.593 4.082 6.124 7.777 6.124h39.388v40.069h-150.051zm254.643 438.4c0 7.48-6.085 13.565-13.565 13.565h-332.104c-7.48 0-13.565-6.085-13.565-13.565v-396.801c0-7.48 6.085-13.565 13.565-13.565h75.025v20.035c0 4.418 3.582 8 8 8h166.052c4.418 0 8-3.582 8-8v-20.035h75.026c7.48 0 13.565 6.085 13.565 13.565v396.801zm-44.71-296.314h-48.42v-17.977c0-4.418-3.582-8-8-8h-156.974c-4.418 0-8 3.582-8 8v17.977h-48.42c-4.418 0-8 3.582-8 8s3.582 8 8 8h48.42v17.976c0 4.418 3.582 8 8 8h156.975c4.418 0 8-3.582 8-8v-17.976h40.42v87.931h-40.42v-17.976c0-4.418-3.582-8-8-8h-156.975c-4.418 0-8 3.582-8 8v17.976h-48.42c-4.418 0-8 3.582-8 8v103.931c0 4.418 3.582 8 8 8h48.42v17.976c0 4.418 3.582 8 8 8h156.975c4.418 0 8-3.582 8-8v-17.976h48.42c4.418 0 8-3.582 8-8s-3.582-8-8-8h-48.42v-17.976c0-4.418-3.582-8-8-8h-156.975c-4.418 0-8 3.582-8 8v17.976h-40.42v-87.931h40.42v17.976c0 4.418 3.582 8 8 8h156.975c4.418 0 8-3.582 8-8v-17.976h48.42c4.418 0 8-3.582 8-8v-103.931c-.001-4.418-3.583-8-8.001-8zm-64.42 25.976h-140.974v-35.952h140.975v35.952zm-140.974 171.91h140.975v35.952h-140.975zm140.974-67.979h-140.974v-35.952h140.975v35.952z" fill="#f9f7f7" data-original="#000000"/></g></svg>
